<?xml version="1.0" encoding="utf-8"?>
<!-- Generator: Adobe Illustrator 23.0.2, SVG Export Plug-In . SVG Version: 6.00 Build 0)  -->
<svg version="1.1" id="Layer_1" xmlns="http://www.w3.org/2000/svg" xmlns:xlink="http://www.w3.org/1999/xlink" x="0px" y="0px"
	 viewBox="0 0 455 138" style="enable-background:new 0 0 455 138;" xml:space="preserve">
<style type="text/css">
	.st0{fill:#0E1B33;}
	.st1{font-family:'Gilroy-Bold';}
	.st2{font-size:100px;}
	.st3{fill:#FF8155;}
</style>
<text transform="matrix(1 0 0 1 160.6016 110.2847)" class="st0 st1 st2">Pohat</text>
<circle class="st3" cx="447.5" cy="104.5" r="7.5"/>
<g>
	<path class="st3" d="M0,137.57c0-0.09,0-0.12,0-0.12c0,0,0,0,0,0c0,0,0,0,0,0c0-28.34,0-56.67,0-85.01
		C8.13,24.12,32.12,3.43,60.41,0.27c33.12-3.71,64.09,17.5,74.14,46.68c10.52,30.55-6.22,57.3-8.24,60.41
		c-14.05,21.66-35.36,28.53-41.19,30.21c-10.98,0-21.97,0-32.95,0c0-10.98,0-21.97,0-32.95c4.56,1.06,12.58,2.26,21.97,0
		c5.03-1.21,20.32-4.89,27.46-19.22c8.32-16.71-1.54-33.69-2.75-35.7C92.63,39.36,83.35,34.8,79.63,33.22
		c-3.41-1.03-11.93-3.08-21.97,0c-2.92,0.89-12.58,4.01-19.22,13.73c-3.65,5.34-4.96,10.59-5.49,13.73c0,25.63,0,51.26,0,76.89"/>
	<path class="st3" d="M52.17,85.39L52.17,85.39c0-7.32,0-14.65,0-21.97c2.88-6.65,9.37-10.97,16.48-10.98
		c6.8-0.01,13.85,3.93,16.48,10.98c2.62,7.03,0.12,15.19-5.49,19.22c-3.07,2.2-6.36,2.65-8.24,2.75"/>
</g>
</svg>
